<svg width="80" height="80" viewBox="0 0 80 80" fill="none" xmlns="http://www.w3.org/2000/svg">
<path d="M48.4974 39C48.8438 40.2562 49.4225 41.2463 50.1727 42H29.6692C30.3014 41.0356 30.9158 40.0383 31.4709 39H48.4974Z" fill="white"/>
<path d="M67.1697 39H70.3149C70.2661 39.1373 70.2109 39.277 70.1501 39.4177C69.908 40.2555 69.6287 41.118 69.3136 42H62.6139C64.2363 41.17 65.7644 40.1644 67.1697 39Z" fill="white"/>
<path d="M48.1322 36H32.8285C33.0898 35.2841 33.3113 34.5483 33.4821 33.7906C33.5749 33.5327 33.6442 33.2682 33.6896 33H48.7268C48.3422 33.9867 48.1327 34.9862 48.1322 36Z" fill="white"/>
<path d="M12.5656 33H31.7383C31.5311 33.3051 31.3349 33.6173 31.1657 33.9047C30.7379 34.6278 30.2536 35.3246 29.7216 36H9.51043C10.4916 34.9419 11.5155 33.9427 12.5656 33Z" fill="white"/>
<path d="M20.5947 27C19.1523 27.9068 17.6821 28.905 16.2243 30H50.4281C51.1729 28.9882 52.0728 27.9888 53.0881 27H20.5947Z" fill="white"/>
<path d="M56.5205 24H25.8261C28.2705 22.7187 30.4403 21.7318 32.072 21.0029L32.0785 21H60.4994C59.1216 21.9918 57.7804 22.9911 56.5205 24Z" fill="white"/>
<path d="M64.7632 18H40.3652C43.2793 17.1271 46.2693 16.3665 49.2593 15.6059L49.263 15.6049C50.0529 15.404 50.8428 15.203 51.6313 15H69.0197C67.6425 15.9956 66.2075 16.9949 64.7632 18Z" fill="white"/>
<path d="M72.9567 12H61.9054C64.3507 11.1441 66.7146 10.1681 68.9483 9H76.2535C75.2967 10 74.1811 10.9993 72.9567 12Z" fill="white"/>
<path d="M78.5952 6H73.7566C74.3928 5.52548 75.0122 5.02624 75.6134 4.5H79.3145L79.2984 4.54335C79.1164 5.02977 78.8801 5.51524 78.5952 6Z" fill="white"/>
<path d="M79.9992 1.5C80.0229 0.556057 79.7385 -0.0315585 79.0852 0.00131086C78.696 0.0249296 78.6158 0.2872 78.4773 0.739916C78.4123 0.952786 78.3342 1.20795 78.2052 1.5H79.9992Z" fill="white"/>
<path d="M6.97894 39C6.24694 39.9584 5.55408 40.958 4.90968 42H23.4299C24.6666 41.0232 25.8514 40.0307 26.9434 39H6.97894Z" fill="white"/>
<path d="M3.25406 45H19.4781C11.791 50.7241 3.7726 56.7049 3.90727 67.5719C3.93393 70.9307 3.94192 73.6979 2.94765 73.6979C2.20152 73.6979 1.46763 70.1353 1.09207 68.3122C1.03829 68.0511 0.991845 67.8257 0.95378 67.6515C-1.03174 58.6415 0.249969 51.1619 3.25406 45Z" fill="white"/>
<path d="M68.1355 45H27.6253C24.985 48.8327 22.8276 52.2342 24.3258 55.8348C27.9323 64.5103 38.3575 58.0448 41.5535 52.4654C41.634 52.3216 41.7111 52.1827 41.7851 52.0492C42.5037 50.754 42.9406 49.9663 43.4674 50.1467C43.9019 50.2953 43.8833 52.0569 43.614 53.6434C41.9027 63.7091 39.5783 69.3654 32.1733 75.0934C31.179 75.8654 29.9438 76.3804 28.8829 76.8227C27.4209 77.4322 26.2898 77.9037 26.5755 78.7201C26.6981 79.0862 28.3028 79.0464 29.5823 78.9191C46.9895 77.8109 61.8836 59.6406 68.1355 45Z" fill="white"/>
</svg>
