<?xml version="1.0" encoding="utf-8"?>
<!-- Generator: Adobe Illustrator 22.1.0, SVG Export Plug-In . SVG Version: 6.00 Build 0)  -->
<svg version="1.2" baseProfile="tiny" id="Layer_1" xmlns="http://www.w3.org/2000/svg" xmlns:xlink="http://www.w3.org/1999/xlink"
	 x="0px" y="0px" viewBox="0 0 31 31" xml:space="preserve">
<title>Fill 1</title>
<desc>Created with Sketch.</desc>
<g id="Desktop">
	<g id="Login-forgot-password" transform="translate(-1390.000000, -839.000000)">
		<g id="Stacked-Group-2" transform="translate(1267.000000, 839.000000)">
			<g id="Group-3" transform="translate(123.000000, 0.000000)">
				<path id="Fill-1" fill="#FFFFFF" d="M23.7,8.2c-0.2,0-0.3,0.1-0.5,0.2C23.1,8,23,7.6,23,7.3c0-0.1,0.1,0,0.2-0.1c0,0,0,0,0.1,0
					c0,0,0.1,0.1,0.1,0.2C23.5,7.7,23.6,8,23.7,8.2 M26.8,3.1c0,0-0.4-0.2-0.6-0.2c-0.2,0-0.6,0-0.7,0.1c-0.1,0.1-0.2,0.1-0.3,0.2
					c-0.1,0.1-0.8,0.8-1,0.9c-1.1,0.1-2.1,0.6-3.4,0.7c0,0-2.9-0.6-3.1-0.6c-0.1,0-0.2,0.2-0.1,0.3c0,0.1,0.1,0.1,0,0.2
					c0,0-0.1,0-0.1,0.1c0,0.1,0.4,0.1,0.4,0.2c-0.1,0.1-0.1,0.1-0.1,0.2c0,0.1,0.3,0.1,0.5,0.2c0.7,0.1,1,0.1,1.3,0.1
					c0.1,0,0.3,0.2,0.5,0.2c0.4,0.1,0.3,0,0.5,0c-0.1,0-0.5,0.2-0.6,0.3c-0.1,0.1,0.2,0.3,0.3,0.3c0.2,0,0.4-0.1,0.8-0.2
					c0,0,0.9,0.6,1.7,1c0,0.5,0,0.8,0.1,1.1c0,0,0,0.1,0,0.1c0,0,0,0-0.1,0c-0.2,0.1-0.3,0.2-0.4,0.3c0,0,0,0,0,0c0,0,0,0,0,0
					c-0.2,0.2-0.3,0.5-0.3,0.5s0,0.1-0.1,0.1c0,0-0.4,0.3-0.5,0.3c-0.1,0-2.3,0.9-2.5,1c-0.2,0.2-0.4,0.1-0.4,0.1
					c-0.3,0-1.3-0.1-1.6-0.3c-0.1,0-0.2-0.1-0.3-0.3c0,0,0.1-0.3,0.1-0.4c0-0.3-0.1-0.5-0.2-1.2c0,0,0.4-0.3,0.5-0.4
					c0.1-0.1,0.1-0.3,0.1-0.4c-0.1-0.3-0.2-0.4-0.4-0.4c-0.2-0.1-0.5,0-0.5,0c-0.3-0.9-0.5-0.8-0.6-1.2c-0.5-1.1-0.9-1.4-1.3-1.8
					c-1-0.9-1.3-0.7-1.5-1.4c-0.3-0.7-0.4-2.8-1.1-2.9c-1-0.2-1.4,0.9-1.8,2.2c-0.8,2.5-1,4.8,0,7.2c0.2,0.5,0.5,1,0.8,1.4
					c-0.2,1-0.9,0.8-1.2,1.4c-0.2,0.6-0.3,1-0.3,1.3c-0.2,0.7-0.9,2.1-0.9,2.8c0,1.3,0.7,1.3,1.4,1.8c0.6,0.4,0.7,0.7,1.3,1.4
					c0,0-1,2.4-0.9,3c0.1,1.2,0,0.6-0.2,1.2l-0.1,0.8c0,0-0.1,2.1-0.4,3.4c-0.2,0.7-0.3,0.9-0.3,1.1c0,0.2,0,1,0,1.2
					c0.1,0.2,0.1,0.3,0.2,0.3c0.9,0.2,1.9,0.3,3.1,0.2c0.1,0,0.1-0.1,0.2-0.2c0.2-1.3-0.1-1.4-0.1-1.9c0-0.6,0.3-3.2,0.4-3.4
					c0.1-0.2,1-1.8,1.6-2.2c0.1-0.1,0,0,0.1-0.1c0.4,0.7,1.2,1.8,1.3,2c0,0.2,0.2,1.5,0.3,2.3c0.2,0.6,0.2,1.2,0.2,1.4
					c0,0.7-0.3,1.7,0,2c0.1,0.1,0.5,0.2,0.7,0.2c1.1,0.2,2.5,0.1,2.7-0.2c0.1-0.1,0.1-0.2,0.1-0.3c0.1-0.8-0.1-0.8-0.3-1.6
					c0-0.3-0.2-0.6-0.3-1c0-0.3-0.1-0.7-0.1-1.4c0-0.4-0.1-1-0.1-1.2c0-0.2,0.2-0.4,0.1-1.1C19,23,18.8,22.1,18.8,21
					c0.2-0.2,0.4-0.6,0.6-0.8c0-0.1,0.1-0.1,0-0.2c-0.1-0.5-0.5-0.8-0.6-1.2c-0.3-0.9-0.3-3.1-0.6-3.9l0,0c0.7-0.4,0.9-0.5,1.6-1.1
					c0.1-0.2,0.7-0.5,1-0.8c1.1-0.7,2.5-0.8,2.6-0.9c0.3-0.3-0.3-0.9-0.3-0.9c0.3-0.4,0.7-0.3,2.1-0.8c0,0,0.6-0.3,0.5-1.5
					c-0.1-0.6-0.8-0.6-1.6-0.3c0,0-0.1,0-0.1,0c0.1-0.2,0-0.3,0-0.4c0,0-0.2,0-0.4,0c-0.1-0.3-0.2-0.4-0.3-0.9c0.2,0,0.4,0,0.8-0.1
					c-0.4,0.1,1.6-0.4,1.9-0.9c0.1-0.3,0.2-0.6,0.2-0.9c0.1-1,0-0.8,0.1-1c0-0.2,0.3-0.7,0.4-0.7c0.1,0,0.8-0.2,0.8-0.2
					C27.6,3.3,27.6,3.1,26.8,3.1"/>
			</g>
		</g>
	</g>
</g>
</svg>
